# Blender v2.74 (sub 0) OBJ File: 'Coral_8.blend'
# www.blender.org
mtllib Trash _1.mtl
o Cylinder
v -0.000000 -0.192940 0.128627
v -0.000000 0.192940 0.128627
v -0.064313 -0.192940 0.111394
v -0.064313 0.192940 0.111394
v -0.111394 -0.192940 0.064313
v -0.111394 0.192940 0.064313
v -0.128627 -0.192940 -0.000000
v -0.128627 0.192940 -0.000000
v -0.111394 -0.192940 -0.064313
v -0.111394 0.192940 -0.064313
v -0.064313 -0.192940 -0.111394
v -0.064313 0.192940 -0.111394
v 0.000000 -0.192940 -0.128627
v 0.000000 0.192940 -0.128627
v 0.064313 -0.192940 -0.111394
v 0.064313 0.192940 -0.111394
v 0.111394 -0.192940 -0.064313
v 0.111394 0.192940 -0.064313
v 0.128627 -0.192940 -0.000000
v 0.128627 0.192940 -0.000000
v 0.111394 -0.192940 0.064313
v 0.111394 0.192940 0.064313
v 0.064313 -0.192940 0.111394
v 0.064313 0.192940 0.111394
v -0.007676 0.235444 0.125867
v -0.068648 0.214236 0.109562
v -0.112678 0.195332 0.063331
v -0.127967 0.194587 -0.000437
v -0.110420 0.193512 -0.064656
v -0.064737 0.192395 -0.112119
v -0.003160 0.210224 -0.130108
v 0.057812 0.231432 -0.113803
v 0.101841 0.250335 -0.067573
v 0.117131 0.261870 -0.003805
v 0.099583 0.262945 0.060415
v 0.053901 0.253272 0.107878
v -0.061637 0.192940 0.106758
v -0.000000 0.192940 0.123273
v -0.106758 0.192940 0.061637
v -0.123273 0.192940 -0.000000
v -0.106758 0.192940 -0.061637
v -0.061637 0.192940 -0.106758
v 0.000000 0.192940 -0.123273
v 0.061637 0.192940 -0.106758
v 0.106758 0.192940 -0.061637
v 0.123273 0.192940 -0.000000
v 0.106758 0.192940 0.061637
v 0.061637 0.192940 0.106758
v -0.061637 -0.168778 0.106758
v -0.000000 -0.168778 0.123273
v -0.106758 -0.168778 0.061637
v -0.123273 -0.168778 -0.000000
v -0.106758 -0.168778 -0.061637
v -0.061637 -0.168778 -0.106758
v 0.000000 -0.168778 -0.123273
v 0.061637 -0.168778 -0.106758
v 0.106758 -0.168778 -0.061637
v 0.123273 -0.168778 -0.000000
v 0.106758 -0.168778 0.061637
v 0.061637 -0.168778 0.106758
vt 0.495911 0.267346
vt 0.495911 0.741955
vt 0.414019 0.741955
vt 0.414019 0.267346
vt 0.332127 0.741955
vt 0.332127 0.267346
vt 0.250235 0.741955
vt 0.250235 0.267346
vt 0.168343 0.741955
vt 0.168343 0.267346
vt 0.086451 0.741955
vt 0.086452 0.267346
vt 0.004560 0.741955
vt 0.004560 0.267346
vt 0.987262 0.267346
vt 0.987262 0.741955
vt 0.905370 0.741955
vt 0.905370 0.267346
vt 0.823478 0.741955
vt 0.823478 0.267346
vt 0.741586 0.741955
vt 0.741586 0.267346
vt 0.659694 0.741955
vt 0.659694 0.267346
vt 0.577802 0.741955
vt 0.577802 0.267346
vt 0.363912 0.041776
vt 0.436064 0.000119
vt 0.519378 0.000119
vt 0.591529 0.041776
vt 0.633186 0.113927
vt 0.633186 0.197241
vt 0.591529 0.269392
vt 0.519377 0.311049
vt 0.436064 0.311049
vt 0.363912 0.269392
vt 0.322256 0.197241
vt 0.322256 0.113927
vt 0.514216 0.983857
vt 0.441767 0.983857
vt 0.379025 0.947633
vt 0.342801 0.884891
vt 0.342801 0.812442
vt 0.379025 0.749700
vt 0.441767 0.713476
vt 0.514216 0.713476
vt 0.576958 0.749700
vt 0.613182 0.812442
vt 0.613182 0.884891
vt 0.576958 0.947633
vn 0.000000 -0.653200 0.757100
vn 0.000000 0.653200 0.757100
vn -0.378600 0.653200 0.655700
vn -0.378600 -0.653200 0.655700
vn -0.655700 0.653200 0.378600
vn -0.655700 -0.653200 0.378600
vn -0.757100 0.653200 0.000000
vn -0.757100 -0.653200 0.000000
vn -0.655700 0.653200 -0.378600
vn -0.655700 -0.653200 -0.378600
vn -0.378600 0.653200 -0.655700
vn -0.378600 -0.653200 -0.655700
vn 0.000000 0.653200 -0.757100
vn 0.000000 -0.653200 -0.757100
vn 0.378600 0.653200 -0.655700
vn 0.378600 -0.653200 -0.655700
vn 0.655700 0.653200 -0.378600
vn 0.655700 -0.653200 -0.378600
vn 0.757100 0.653200 0.000000
vn 0.757100 -0.653200 0.000000
vn 0.655700 0.653200 0.378600
vn 0.655700 -0.653200 0.378600
vn 0.378600 0.653200 0.655700
vn -0.318900 0.770300 -0.552300
vn 0.000000 0.770300 -0.637700
vn 0.378600 -0.653200 0.655700
vn -0.279500 0.955700 -0.092300
vn -0.552300 0.770300 -0.318900
vn -0.637700 0.770300 0.000000
vn -0.552300 0.770300 0.318900
vn -0.318900 0.770300 0.552300
vn 0.000000 0.770300 0.637700
vn 0.318900 0.770300 0.552300
vn 0.552300 0.770300 0.318900
vn 0.637700 0.770300 0.000000
vn 0.552300 0.770300 -0.318900
vn 0.318900 0.770300 -0.552300
usemtl Material.013
s 1
f 1/1/1 2/2/2 4/3/3 3/4/4
f 3/4/4 4/3/3 6/5/5 5/6/6
f 5/6/6 6/5/5 8/7/7 7/8/8
f 7/8/8 8/7/7 10/9/9 9/10/10
f 9/10/10 10/9/9 12/11/11 11/12/12
f 11/12/12 12/11/11 14/13/13 13/14/14
f 13/15/14 14/16/13 16/17/15 15/18/16
f 15/18/16 16/17/15 18/19/17 17/20/18
f 17/20/18 18/19/17 20/21/19 19/22/20
f 19/22/20 20/21/19 22/23/21 21/24/22
f 2/2/2 24/25/23 48/25/24 38/2/25
f 23/26/26 24/25/23 2/2/2 1/1/1
f 21/24/22 22/23/21 24/25/23 23/26/26
f 1/27/1 3/28/4 5/29/6 7/30/8 9/31/10 11/32/12 13/33/14 15/34/16 17/35/18 19/36/20 21/37/22 23/38/26
f 26/39/27 25/40/27 36/41/27 35/42/27 34/43/27 33/44/27 32/45/27 31/46/27 30/47/27 29/48/27 28/49/27 27/50/27
f 38/2/25 48/25/24 60/25/11 50/2/13
f 24/25/23 22/23/21 47/23/28 48/25/24
f 22/23/21 20/21/19 46/21/29 47/23/28
f 20/21/19 18/19/17 45/19/30 46/21/29
f 18/19/17 16/17/15 44/17/31 45/19/30
f 16/17/15 14/16/13 43/16/32 44/17/31
f 14/13/13 12/11/11 42/11/33 43/13/32
f 12/11/11 10/9/9 41/9/34 42/11/33
f 10/9/9 8/7/7 40/7/35 41/9/34
f 8/7/7 6/5/5 39/5/36 40/7/35
f 6/5/5 4/3/3 37/3/37 39/5/36
f 4/3/3 2/2/2 38/2/25 37/3/37
f 49/39/15 50/40/13 60/41/11 59/42/9 58/43/7 57/44/5 56/45/3 55/46/2 54/47/23 53/48/21 52/49/19 51/50/17
f 48/25/24 47/23/28 59/23/9 60/25/11
f 47/23/28 46/21/29 58/21/7 59/23/9
f 46/21/29 45/19/30 57/19/5 58/21/7
f 45/19/30 44/17/31 56/17/3 57/19/5
f 44/17/31 43/16/32 55/16/2 56/17/3
f 43/13/32 42/11/33 54/11/23 55/13/2
f 42/11/33 41/9/34 53/9/21 54/11/23
f 41/9/34 40/7/35 52/7/19 53/9/21
f 40/7/35 39/5/36 51/5/17 52/7/19
f 39/5/36 37/3/37 49/3/15 51/5/17
f 37/3/37 38/2/25 50/2/13 49/3/15
