# Blender v2.74 (sub 0) OBJ File: 'Coral_12.blend'
# www.blender.org
mtllib Trash _1.mtl
o Cylinder
v -0.000000 -0.192940 0.128627
v -0.000000 0.192940 0.128627
v -0.064313 -0.192940 0.111394
v -0.064313 0.192940 0.111394
v -0.111394 -0.192940 0.064313
v -0.111394 0.192940 0.064313
v -0.128627 -0.192940 -0.000000
v -0.128627 0.192940 -0.000000
v -0.111394 -0.192940 -0.064313
v -0.111394 0.192940 -0.064313
v -0.064313 -0.192940 -0.111394
v -0.064313 0.192940 -0.111394
v 0.000000 -0.192940 -0.128627
v 0.000000 0.192940 -0.128627
v 0.064313 -0.192940 -0.111394
v 0.064313 0.192940 -0.111394
v 0.111394 -0.192940 -0.064313
v 0.111394 0.192940 -0.064313
v 0.128627 -0.192940 -0.000000
v 0.128627 0.192940 -0.000000
v 0.111394 -0.192940 0.064313
v 0.111394 0.192940 0.064313
v 0.064313 -0.192940 0.111394
v 0.064313 0.192940 0.111394
v -0.007676 0.235444 0.125867
v -0.068648 0.214236 0.109562
v -0.112678 0.195332 0.063331
v -0.127967 0.194587 -0.000437
v -0.110420 0.193512 -0.064656
v -0.064737 0.192395 -0.112119
v -0.003160 0.210224 -0.130108
v 0.057812 0.231432 -0.113803
v 0.101841 0.250335 -0.067573
v 0.117131 0.261870 -0.003805
v 0.099583 0.262945 0.060415
v 0.053901 0.253272 0.107878
v -0.061637 0.192940 0.106758
v -0.000000 0.192940 0.123273
v -0.106758 0.192940 0.061637
v -0.123273 0.192940 -0.000000
v -0.106758 0.192940 -0.061637
v -0.061637 0.192940 -0.106758
v 0.000000 0.192940 -0.123273
v 0.061637 0.192940 -0.106758
v 0.106758 0.192940 -0.061637
v 0.123273 0.192940 -0.000000
v 0.106758 0.192940 0.061637
v 0.061637 0.192940 0.106758
v -0.061637 -0.168778 0.106758
v -0.000000 -0.168778 0.123273
v -0.106758 -0.168778 0.061637
v -0.123273 -0.168778 -0.000000
v -0.106758 -0.168778 -0.061637
v -0.061637 -0.168778 -0.106758
v 0.000000 -0.168778 -0.123273
v 0.061637 -0.168778 -0.106758
v 0.106758 -0.168778 -0.061637
v 0.123273 -0.168778 -0.000000
v 0.106758 -0.168778 0.061637
v 0.061637 -0.168778 0.106758
v -0.008921 0.239698 0.125455
v -0.069893 0.218491 0.109150
v -0.113922 0.199587 0.062920
v -0.129211 0.198842 -0.000848
v -0.111664 0.197767 -0.065067
v -0.065981 0.196650 -0.112530
v -0.004404 0.214479 -0.130519
v 0.056567 0.235686 -0.114214
v 0.100597 0.254590 -0.067984
v 0.115886 0.266124 -0.004216
v 0.098339 0.267200 0.060003
v 0.052656 0.257527 0.107466
vt 0.495911 0.267346
vt 0.495911 0.741955
vt 0.414019 0.741955
vt 0.414019 0.267346
vt 0.332127 0.741955
vt 0.332127 0.267346
vt 0.250235 0.741955
vt 0.250235 0.267346
vt 0.168343 0.741955
vt 0.168343 0.267346
vt 0.086451 0.741955
vt 0.086452 0.267346
vt 0.004560 0.741955
vt 0.004560 0.267346
vt 0.987262 0.267346
vt 0.987262 0.741955
vt 0.905370 0.741955
vt 0.905370 0.267346
vt 0.823478 0.741955
vt 0.823478 0.267346
vt 0.741586 0.741955
vt 0.741586 0.267346
vt 0.659694 0.741955
vt 0.659694 0.267346
vt 0.577802 0.741955
vt 0.577802 0.267346
vt 0.363912 0.041776
vt 0.436064 0.000119
vt 0.519378 0.000119
vt 0.591529 0.041776
vt 0.633186 0.113927
vt 0.633186 0.197241
vt 0.591529 0.269392
vt 0.519377 0.311049
vt 0.436064 0.311049
vt 0.363912 0.269392
vt 0.322256 0.197241
vt 0.322256 0.113927
vt 0.514216 0.983857
vt 0.576958 0.947633
vt 0.613182 0.884891
vt 0.613182 0.812442
vt 0.576958 0.749700
vt 0.514216 0.713476
vt 0.441767 0.713476
vt 0.379025 0.749700
vt 0.342801 0.812442
vt 0.342801 0.884891
vt 0.379025 0.947633
vt 0.441767 0.983857
vn 0.000000 -0.653200 0.757100
vn 0.000000 0.653200 0.757100
vn -0.378600 0.653200 0.655700
vn -0.378600 -0.653200 0.655700
vn -0.655700 0.653200 0.378600
vn -0.655700 -0.653200 0.378600
vn -0.757100 0.653200 0.000000
vn -0.757100 -0.653200 0.000000
vn -0.655700 0.653200 -0.378600
vn -0.655700 -0.653200 -0.378600
vn -0.378600 0.653200 -0.655700
vn -0.378600 -0.653200 -0.655700
vn 0.000000 0.653200 -0.757100
vn 0.000000 -0.653200 -0.757100
vn 0.378600 0.653200 -0.655700
vn 0.378600 -0.653200 -0.655700
vn 0.655700 0.653200 -0.378600
vn 0.655700 -0.653200 -0.378600
vn 0.757100 0.653200 0.000000
vn 0.757100 -0.653200 0.000000
vn 0.655700 0.653200 0.378600
vn 0.655700 -0.653200 0.378600
vn 0.378600 0.653200 0.655700
vn -0.318900 0.770300 -0.552300
vn 0.000000 0.770300 -0.637700
vn 0.378600 -0.653200 0.655700
vn -0.193400 -0.671300 0.715400
vn -0.442300 -0.784800 0.434000
vn -0.561400 -0.825300 0.059600
vn -0.460300 -0.831800 -0.310000
vn -0.167900 -0.801700 -0.573700
vn 0.191500 -0.694900 -0.693100
vn 0.553800 -0.578900 -0.598400
vn 0.817500 -0.474700 -0.326100
vn 0.910300 -0.410700 0.051300
vn 0.806500 -0.404300 0.431400
vn 0.534100 -0.457400 0.711000
vn 0.167700 -0.555300 0.814500
vn -0.552300 0.770300 -0.318900
vn -0.637700 0.770300 0.000000
vn -0.552300 0.770300 0.318900
vn -0.318900 0.770300 0.552300
vn 0.000000 0.770300 0.637700
vn 0.318900 0.770300 0.552300
vn 0.552300 0.770300 0.318900
vn 0.637700 0.770300 0.000000
vn 0.552300 0.770300 -0.318900
vn 0.318900 0.770300 -0.552300
vn -0.553800 0.578900 0.598400
vn -0.191500 0.694900 0.693100
vn 0.171800 0.791600 0.586300
vn 0.439900 0.843500 0.308000
vn 0.542600 0.837200 -0.067700
vn 0.452800 0.774400 -0.441800
vn 0.193400 0.671300 -0.715400
vn -0.167700 0.555300 -0.814500
vn -0.559800 0.422800 -0.712600
vn -0.809700 0.427400 -0.402100
vn -0.898100 0.432700 -0.078000
vn -0.840300 0.440400 0.316200
usemtl Material.013
s 1
f 1/1/1 2/2/2 4/3/3 3/4/4
f 3/4/4 4/3/3 6/5/5 5/6/6
f 5/6/6 6/5/5 8/7/7 7/8/8
f 7/8/8 8/7/7 10/9/9 9/10/10
f 9/10/10 10/9/9 12/11/11 11/12/12
f 11/12/12 12/11/11 14/13/13 13/14/14
f 13/15/14 14/16/13 16/17/15 15/18/16
f 15/18/16 16/17/15 18/19/17 17/20/18
f 17/20/18 18/19/17 20/21/19 19/22/20
f 19/22/20 20/21/19 22/23/21 21/24/22
f 2/2/2 24/25/23 48/25/24 38/2/25
f 23/26/26 24/25/23 2/2/2 1/1/1
f 21/24/22 22/23/21 24/25/23 23/26/26
f 1/27/1 3/28/4 5/29/6 7/30/8 9/31/10 11/32/12 13/33/14 15/34/16 17/35/18 19/36/20 21/37/22 23/38/26
f 26/39/27 27/40/28 28/41/29 29/42/30 30/43/31 31/44/32 32/45/33 33/46/34 34/47/35 35/48/36 36/49/37 25/50/38
f 38/2/25 48/25/24 60/25/11 50/2/13
f 24/25/23 22/23/21 47/23/39 48/25/24
f 22/23/21 20/21/19 46/21/40 47/23/39
f 20/21/19 18/19/17 45/19/41 46/21/40
f 18/19/17 16/17/15 44/17/42 45/19/41
f 16/17/15 14/16/13 43/16/43 44/17/42
f 14/13/13 12/11/11 42/11/44 43/13/43
f 12/11/11 10/9/9 41/9/45 42/11/44
f 10/9/9 8/7/7 40/7/46 41/9/45
f 8/7/7 6/5/5 39/5/47 40/7/46
f 6/5/5 4/3/3 37/3/48 39/5/47
f 4/3/3 2/2/2 38/2/25 37/3/48
f 49/39/15 50/50/13 60/49/11 59/48/9 58/47/7 57/46/5 56/45/3 55/44/2 54/43/23 53/42/21 52/41/19 51/40/17
f 48/25/24 47/23/39 59/23/9 60/25/11
f 47/23/39 46/21/40 58/21/7 59/23/9
f 46/21/40 45/19/41 57/19/5 58/21/7
f 45/19/41 44/17/42 56/17/3 57/19/5
f 44/17/42 43/16/43 55/16/2 56/17/3
f 43/13/43 42/11/44 54/11/23 55/13/2
f 42/11/44 41/9/45 53/9/21 54/11/23
f 41/9/45 40/7/46 52/7/19 53/9/21
f 40/7/46 39/5/47 51/5/17 52/7/19
f 39/5/47 37/3/48 49/3/15 51/5/17
f 37/3/48 38/2/25 50/2/13 49/3/15
f 62/39/49 61/50/50 72/49/51 71/48/52 70/47/53 69/46/54 68/45/55 67/44/56 66/43/57 65/42/58 64/41/59 63/40/60
f 25/50/38 36/49/37 72/49/51 61/50/50
f 36/49/37 35/48/36 71/48/52 72/49/51
f 35/48/36 34/47/35 70/47/53 71/48/52
f 34/47/35 33/46/34 69/46/54 70/47/53
f 33/46/34 32/45/33 68/45/55 69/46/54
f 32/45/33 31/44/32 67/44/56 68/45/55
f 31/44/32 30/43/31 66/43/57 67/44/56
f 30/43/31 29/42/30 65/42/58 66/43/57
f 29/42/30 28/41/29 64/41/59 65/42/58
f 28/41/29 27/40/28 63/40/60 64/41/59
f 27/40/28 26/39/27 62/39/49 63/40/60
f 26/39/27 25/50/38 61/50/50 62/39/49
