# Blender v2.74 (sub 0) OBJ File: 'Coral_9.blend'
# www.blender.org
mtllib Trash _4.mtl
o Cube.353_Cube.028
v -0.272235 -0.272235 0.272235
v -0.272235 0.272235 0.272235
v -0.272235 -0.272235 -0.272235
v -0.272235 0.272235 -0.272235
v 0.272235 -0.272235 0.272235
v 0.272235 0.272235 0.272235
v 0.272235 -0.272235 -0.272235
v 0.272235 0.272235 -0.272235
v 0.020074 0.481028 0.185498
v 0.020074 0.481028 -0.185498
v 0.272235 0.481028 0.185498
v 0.272235 0.481028 -0.185498
v -0.236063 -0.289430 0.236063
v -0.236063 -0.289430 -0.236063
v 0.236063 -0.289430 0.236063
v 0.236063 -0.289430 -0.236063
v 0.039653 0.489311 0.156693
v 0.039653 0.489311 -0.156693
v 0.252657 0.489311 0.156693
v 0.252657 0.489311 -0.156693
v 0.284175 -0.213983 0.235575
v 0.284175 0.257167 0.235575
v 0.284175 -0.213983 -0.235575
v 0.284175 0.257167 -0.235575
v 0.284175 0.437843 0.160518
v 0.284175 0.437843 -0.160518
v -0.282470 -0.236160 0.236160
v -0.282470 0.236160 0.236160
v -0.282470 -0.236160 -0.236160
v -0.282470 0.236160 -0.236160
v 0.107601 0.489311 0.036766
v 0.107601 0.489311 -0.036766
v 0.184708 0.489311 0.036766
v 0.184708 0.489311 -0.036766
v 0.092859 0.489311 0.000000
v 0.146155 0.489311 -0.050825
v 0.199450 0.489311 0.000000
v 0.146155 0.489311 0.050825
v 0.107601 0.510437 0.036766
v 0.107601 0.503331 0.036766
v 0.107601 0.503331 -0.036766
v 0.184708 0.503331 0.036766
v 0.184708 0.503331 -0.036766
v 0.092859 0.503331 0.000000
v 0.146155 0.503331 -0.050825
v 0.199450 0.503331 0.000000
v 0.146155 0.503331 0.050825
v 0.100998 0.510437 0.043063
v 0.107601 0.510437 -0.036766
v 0.184708 0.510437 0.036766
v 0.184708 0.510437 -0.036766
v 0.092859 0.510437 0.000000
v 0.146155 0.510437 -0.050825
v 0.199450 0.510437 0.000000
v 0.146155 0.510437 0.050825
v 0.100998 0.525114 0.043063
v 0.100998 0.510437 -0.043063
v 0.191311 0.510437 0.043063
v 0.191311 0.510437 -0.043063
v 0.083731 0.510437 0.000000
v 0.146155 0.510437 -0.059530
v 0.208578 0.510437 0.000000
v 0.146155 0.510437 0.059530
v 0.104815 0.525114 0.039424
v 0.100998 0.525114 -0.043063
v 0.191311 0.525114 0.043063
v 0.191311 0.525114 -0.043063
v 0.083731 0.525114 0.000000
v 0.146155 0.525114 -0.059530
v 0.208578 0.525114 0.000000
v 0.146155 0.525114 0.059530
v 0.104815 0.560417 0.039424
v 0.104815 0.525114 -0.039424
v 0.187495 0.525114 0.039424
v 0.187495 0.525114 -0.039424
v 0.089007 0.525114 0.000000
v 0.146155 0.525114 -0.054499
v 0.203303 0.525114 0.000000
v 0.146155 0.525114 0.054499
v 0.104815 0.560417 -0.039424
v 0.187495 0.560417 0.039424
v 0.187495 0.560417 -0.039424
v 0.089007 0.560417 0.000000
v 0.146155 0.560417 -0.054499
v 0.203303 0.560417 0.000000
v 0.146155 0.560417 0.054499
v 0.146155 0.560417 0.000000
v 0.083372 0.272235 -0.272235
v 0.083372 -0.272235 -0.272235
v 0.083372 0.272235 0.272235
v 0.083372 -0.272235 0.272235
v 0.184767 0.481028 -0.185498
v 0.184767 0.481028 0.185498
v 0.072294 -0.289430 -0.236063
v 0.072294 -0.289430 0.236063
v 0.178771 0.489311 -0.156693
v 0.178771 0.489311 0.156693
v 0.116060 0.272235 -0.272235
v 0.116060 -0.272235 0.272235
v 0.199906 0.481028 -0.185498
v 0.100639 -0.289430 0.236063
v 0.191559 0.489311 -0.156693
v 0.116060 -0.272235 -0.272235
v 0.116060 0.272235 0.272235
v 0.199906 0.481028 0.185498
v 0.100639 -0.289430 -0.236063
v 0.191559 0.489311 0.156693
v -0.272235 0.206303 0.272235
v -0.272235 0.206303 -0.272235
v 0.272235 0.206303 -0.272235
v 0.272235 0.206303 0.272235
v 0.284175 0.200114 -0.235575
v 0.284175 0.200114 0.235575
v -0.282470 0.178965 0.236160
v -0.282470 0.178965 -0.236160
v 0.083372 0.206303 0.272235
v 0.083372 0.206303 -0.272235
v 0.116060 0.206303 0.272235
v 0.116060 0.206303 -0.272235
v -0.272235 -0.165328 -0.272235
v 0.272235 -0.165328 -0.272235
v 0.272235 -0.165328 0.272235
v 0.284175 -0.165887 -0.235575
v 0.284175 -0.165887 0.235575
v -0.282470 -0.143419 -0.236160
v 0.083372 -0.165328 0.272235
v 0.083372 -0.165328 -0.272235
v 0.116060 -0.165328 0.272235
v 0.116060 -0.165328 -0.272235
v -0.272235 -0.165328 0.272235
v -0.282470 -0.143419 0.236160
v -0.272235 -0.122315 0.272235
v -0.282470 -0.106106 0.236160
v -0.272235 -0.122315 -0.272235
v 0.272235 -0.122315 -0.051966
v 0.272235 -0.122315 0.051966
v 0.284175 -0.123525 -0.044968
v 0.284175 -0.123525 0.044968
v -0.282470 -0.106106 -0.236160
v 0.083372 -0.122315 0.272235
v 0.083372 -0.122315 -0.272235
v 0.116060 -0.122315 0.084656
v 0.116060 -0.122315 -0.084656
v -0.272235 0.151534 0.272235
v -0.282470 0.131453 0.236160
v -0.272235 0.151534 -0.272235
v 0.272235 0.151534 -0.051966
v 0.272235 0.151534 0.051966
v 0.284175 0.146174 -0.044968
v 0.284175 0.146174 0.044968
v -0.282470 0.131453 -0.236160
v 0.083372 0.151534 0.272235
v 0.083372 0.151534 -0.272235
v 0.116060 0.151534 0.084656
v 0.116060 0.151534 -0.084656
v 0.199132 0.272235 -0.272235
v 0.199132 -0.272235 0.272235
v 0.238379 0.481028 -0.185498
v 0.172673 -0.289430 0.236063
v 0.224058 0.489311 -0.156693
v 0.199132 -0.272235 -0.272235
v 0.199132 0.272235 0.272235
v 0.238379 0.481028 0.185498
v 0.172673 -0.289430 -0.236063
v 0.224058 0.489311 0.156693
v 0.199132 0.206303 0.272235
v 0.199132 0.206303 -0.272235
v 0.199132 -0.165328 0.272235
v 0.199132 -0.165328 -0.272235
v 0.199132 -0.122315 -0.067268
v 0.199132 -0.122315 0.067268
v 0.199132 0.151534 0.067268
v 0.199132 0.151534 -0.067268
vt 0.022360 0.496366
vt 0.020197 0.503988
vt 0.121950 0.518954
vt 0.137396 0.518954
vt 0.137396 0.496366
vt 0.121950 0.496366
vt 0.137396 0.655516
vt 0.137396 0.611402
vt 0.139918 0.608219
vt 0.139918 0.646392
vt 0.097493 0.518954
vt 0.022360 0.518954
vt 0.097493 0.496366
vt 0.030002 0.492733
vt 0.095152 0.492733
vt 0.121950 0.611402
vt 0.130243 0.655516
vt 0.133259 0.657266
vt 0.127217 0.657266
vt 0.097493 0.611402
vt 0.022360 0.611402
vt 0.084119 0.655516
vt 0.118915 0.655516
vt 0.116360 0.492733
vt 0.129753 0.492733
vt 0.088256 0.657266
vt 0.117649 0.657266
vt 0.120350 0.657266
vt 0.118903 0.657266
vt 0.110757 0.657266
vt 0.102612 0.657266
vt 0.139918 0.518836
vt 0.139918 0.508674
vt 0.137396 0.597472
vt 0.139918 0.596164
vt 0.020197 0.523582
vt 0.020197 0.603780
vt 0.022360 0.597472
vt 0.020197 0.591696
vt 0.099497 0.657266
vt 0.102612 0.660228
vt 0.099497 0.660228
vt 0.122018 0.657266
vt 0.110757 0.660228
vt 0.118903 0.660228
vt 0.122018 0.660228
vt 0.102612 0.661730
vt 0.099497 0.661730
vt 0.110757 0.661730
vt 0.118903 0.661730
vt 0.122018 0.661730
vt 0.535948 0.560747
vt 0.540783 0.560747
vt 0.538617 0.560747
vt 0.532954 0.560747
vt 0.553427 0.560747
vt 0.570906 0.560747
vt 0.566071 0.560747
vt 0.568236 0.560747
vt 0.573899 0.560747
vt 0.538617 0.565560
vt 0.532954 0.565560
vt 0.553427 0.565560
vt 0.568236 0.565560
vt 0.573899 0.565560
vt 0.539869 0.565560
vt 0.534684 0.565560
vt 0.566985 0.565560
vt 0.572169 0.565560
vt 0.539869 0.577138
vt 0.534684 0.577138
vt 0.553427 0.577138
vt 0.566985 0.577138
vt 0.572169 0.577138
vt 0.122114 0.655516
vt 0.104399 0.611402
vt 0.104399 0.496366
vt 0.101141 0.492733
vt 0.104399 0.518954
vt 0.104399 0.597472
vt 0.097493 0.597472
vt 0.121950 0.597472
vt 0.022360 0.585900
vt 0.020197 0.581658
vt 0.137396 0.585900
vt 0.139918 0.584768
vt 0.097493 0.528041
vt 0.104399 0.528041
vt 0.121950 0.528041
vt 0.022360 0.528041
vt 0.020197 0.531466
vt 0.137396 0.528041
vt 0.139918 0.527786
vt 0.121950 0.585900
vt 0.097493 0.585900
vt 0.104399 0.585900
vn -0.568600 -0.515800 -0.640800
vn -0.568600 -0.515800 0.640800
vn -0.989100 -0.104000 0.104000
vn -0.989100 -0.104000 -0.104000
vn 0.013900 0.629800 -0.776600
vn 0.476400 0.536600 -0.696500
vn 0.575200 -0.515800 -0.634800
vn 0.000000 -0.534200 -0.845400
vn 0.560300 0.652800 0.509800
vn 0.561700 0.165100 0.810700
vn 0.985900 0.028100 0.165000
vn 0.987000 0.129600 0.095200
vn 0.225200 0.171100 0.959100
vn -0.602900 0.000000 0.797800
vn 0.000000 -0.534200 0.845400
vn -0.167600 -0.971500 0.167600
vn 0.000000 -0.975500 0.220000
vn 0.000000 0.195600 0.980700
vn 0.000000 0.746100 0.665800
vn 0.161300 0.982000 0.098100
vn 0.000000 0.990200 0.139500
vn 0.561700 0.165100 -0.810700
vn 0.560300 0.652800 -0.509800
vn 0.987000 0.129600 -0.095200
vn 0.985900 0.028100 -0.165000
vn 0.000000 0.195600 -0.980700
vn -0.630600 0.422700 -0.650900
vn -0.265100 0.809200 -0.524300
vn 0.000000 0.746100 -0.665800
vn -0.630600 0.422700 0.650900
vn -0.265100 0.809200 0.524300
vn 0.000000 -0.975500 -0.220000
vn 0.167600 -0.971500 -0.167600
vn 0.167600 -0.971500 0.167600
vn 0.575200 -0.515800 0.634800
vn -0.167600 -0.971500 -0.167600
vn -0.161300 0.982000 0.098100
vn 0.406800 0.811300 0.419800
vn 0.000000 0.637500 0.770400
vn -0.406800 0.811300 0.419800
vn 0.161300 0.982000 -0.098100
vn -0.161300 0.982000 -0.098100
vn 0.000000 0.990200 -0.139500
vn 0.856700 0.477700 -0.194500
vn 0.856700 0.477700 0.194500
vn 0.989200 -0.069300 0.128800
vn 0.989200 -0.069300 -0.128800
vn 0.476400 0.536600 0.696500
vn 0.470400 -0.510500 -0.719800
vn 0.733500 -0.625400 -0.266000
vn -0.990400 0.000000 0.137800
vn -0.990400 0.000000 -0.137800
vn -0.602900 0.000000 -0.797800
vn -0.989100 0.104000 -0.104000
vn -0.989100 0.104000 0.104000
vn -0.774800 0.632100 0.000000
vn -0.695800 0.000000 0.718200
vn -1.000000 0.000000 0.000000
vn 0.406800 0.811300 -0.419800
vn 0.774800 0.632100 0.000000
vn -0.406800 0.811300 -0.419800
vn 0.000000 0.637500 -0.770400
vn -0.695800 0.000000 -0.718200
vn 0.000000 0.000000 -1.000000
vn 0.695800 0.000000 -0.718200
vn 1.000000 0.000000 0.000000
vn 0.695800 0.000000 0.718200
vn 0.000000 0.000000 1.000000
vn -0.406800 -0.811300 0.419800
vn -0.598400 -0.801200 0.000000
vn -0.406800 -0.811300 -0.419800
vn 0.000000 -0.792900 -0.609300
vn 0.406800 -0.811300 -0.419800
vn 0.598400 -0.801200 0.000000
vn 0.406800 -0.811300 0.419800
vn 0.000000 -0.792900 0.609300
vn -0.542700 -0.625800 0.560200
vn -0.774800 -0.632100 0.000000
vn -0.542700 -0.625800 -0.560200
vn 0.000000 -0.637500 -0.770400
vn 0.542700 -0.625800 -0.560200
vn 0.774800 -0.632100 0.000000
vn 0.542700 -0.625800 0.560200
vn 0.000000 -0.637500 0.770400
vn -0.542700 0.625800 0.560200
vn -0.542700 0.625800 -0.560200
vn 0.542700 0.625800 -0.560200
vn 0.542700 0.625800 0.560200
vn -0.598400 0.801200 0.000000
vn 0.000000 0.792900 -0.609300
vn 0.598400 0.801200 0.000000
vn 0.000000 0.792900 0.609300
vn 0.000000 1.000000 0.000000
vn 0.260100 0.513800 0.817500
vn 0.225200 0.171100 -0.959100
vn 0.013900 0.629800 0.776600
vn 0.260100 0.513800 -0.817500
vn 0.278000 -0.475000 -0.834900
vn 0.240300 -0.143400 -0.960000
vn 0.278000 -0.475000 0.834900
vn 0.017100 -0.608400 0.793400
vn 0.240300 -0.143400 0.960000
vn 0.195000 -0.687200 -0.699800
vn 0.929500 -0.163500 -0.330500
vn 0.470400 -0.510500 0.719800
vn 0.733500 -0.625400 0.266000
vn 0.017100 -0.608400 -0.793400
vn 0.572800 0.190600 -0.797200
vn 0.710800 0.686600 -0.152600
vn -0.216800 0.890300 0.400400
vn 0.710800 0.686600 0.152600
vn 0.572800 0.190600 0.797200
vn 0.387300 0.609400 0.691800
vn 0.954900 0.162100 0.248800
vn 0.954900 0.162100 -0.248800
vn -0.216800 0.890300 -0.400400
vn 0.387300 0.609400 -0.691800
vn -0.212500 -0.878200 -0.428400
vn 0.584900 -0.158800 0.795400
vn 0.929500 -0.163500 0.330500
vn 0.195000 -0.687200 0.699800
vn 0.717800 -0.673800 0.175200
vn 0.584900 -0.158800 -0.795400
vn 0.717800 -0.673800 -0.175200
vn -0.212500 -0.878200 0.428400
usemtl Material.015
s 1
f 3/1/1 1/1/2 27/2/3 29/2/4
f 169/3/5 121/4/6 7/5/7 161/6/8
f 11/7/9 6/8/10 22/9/11 25/10/12
f 126/11/13 130/12/14 1/1/2 91/13/15
f 91/13/15 1/1/2 13/14/16 95/15/17
f 162/16/18 6/8/10 11/7/9 163/17/19
f 163/17/19 11/7/9 19/18/20 165/19/21
f 8/8/22 12/7/23 26/10/24 24/9/25
f 88/20/26 4/21/27 10/22/28 92/23/29
f 4/21/27 2/21/30 9/22/31 10/22/28
f 159/24/17 164/24/32 16/25/33 15/25/34
f 7/5/7 5/5/35 15/25/34 16/25/33
f 161/6/8 7/5/7 16/25/33 164/24/32
f 1/1/2 3/1/1 14/14/36 13/14/16
f 17/26/37 97/27/21 107/28/21 165/19/21 19/18/20 33/29/38 38/30/39 31/31/40
f 11/7/9 12/7/23 20/18/41 19/18/20
f 92/23/29 10/22/28 18/26/42 96/27/43
f 10/22/28 9/22/31 17/26/37 18/26/42
f 123/32/44 124/32/45 21/33/46 23/33/47
f 22/9/11 24/9/25 26/10/24 25/10/12
f 12/7/23 11/7/9 25/10/12 26/10/24
f 5/5/35 7/5/7 23/33/47 21/33/46
f 122/4/48 5/5/35 21/33/46 124/32/45
f 110/34/49 8/8/22 24/9/25 112/35/50
f 131/36/51 125/36/52 29/2/4 27/2/3
f 120/12/53 3/1/1 29/2/4 125/36/52
f 2/21/30 4/21/27 30/37/54 28/37/55
f 108/38/14 2/21/30 28/37/55 114/39/51
f 35/40/56 31/31/40 40/41/57 44/42/58
f 19/18/20 20/18/41 34/29/59 37/43/60 33/29/38
f 20/18/41 160/19/43 102/28/43 96/27/43 18/26/42 32/31/61 36/30/62 34/29/59
f 18/26/42 17/26/37 31/31/40 35/40/56 32/31/61
f 36/30/62 32/31/61 41/41/63 45/44/64
f 37/43/60 34/29/59 43/45/65 46/46/66
f 38/30/39 33/29/38 42/45/67 47/44/68
f 44/42/58 40/41/57 39/47/69 52/48/70
f 45/44/64 41/41/63 49/47/71 53/49/72
f 46/46/66 43/45/65 51/50/73 54/51/74
f 47/44/68 42/45/67 50/50/75 55/49/76
f 31/31/40 38/30/39 47/44/68 40/41/57
f 33/29/38 37/43/60 46/46/66 42/45/67
f 34/29/59 36/30/62 45/44/64 43/45/65
f 32/31/61 35/40/56 44/42/58 41/41/63
f 52/52/70 39/53/69 48/54/77 60/55/78
f 53/56/72 49/53/71 57/54/79 61/56/80
f 54/57/74 51/58/73 59/59/81 62/60/82
f 55/56/76 50/58/75 58/59/83 63/56/84
f 40/41/57 47/44/68 55/49/76 39/47/69
f 42/45/67 46/46/66 54/51/74 50/50/75
f 43/45/65 45/44/64 53/49/72 51/50/73
f 41/41/63 44/42/58 52/48/70 49/47/71
f 60/55/78 48/54/77 56/61/85 68/62/56
f 61/56/80 57/54/79 65/61/86 69/63/62
f 62/60/82 59/59/81 67/64/87 70/65/60
f 63/56/84 58/59/83 66/64/88 71/63/39
f 39/53/69 55/56/76 63/56/84 48/54/77
f 50/58/75 54/57/74 62/60/82 58/59/83
f 51/58/73 53/56/72 61/56/80 59/59/81
f 49/53/71 52/52/70 60/55/78 57/54/79
f 68/62/56 56/61/85 64/66/40 76/67/89
f 69/63/62 65/61/86 73/66/61 77/63/90
f 70/65/60 67/64/87 75/68/59 78/69/91
f 71/63/39 66/64/88 74/68/38 79/63/92
f 48/54/77 63/56/84 71/63/39 56/61/85
f 58/59/83 62/60/82 70/65/60 66/64/88
f 59/59/81 61/56/80 69/63/62 67/64/87
f 57/54/79 60/55/78 68/62/56 65/61/86
f 76/67/89 64/66/40 72/70/85 83/71/56
f 77/63/90 73/66/61 80/70/86 84/72/62
f 78/69/91 75/68/59 82/73/87 85/74/60
f 79/63/92 74/68/38 81/73/88 86/72/39
f 56/61/85 71/63/39 79/63/92 64/66/40
f 66/64/88 70/65/60 78/69/91 74/68/38
f 67/64/87 69/63/62 77/63/90 75/68/59
f 65/61/86 68/62/56 76/67/89 73/66/61
f 87/72/93 84/72/62 80/70/86 83/71/56
f 86/72/39 87/72/93 83/71/56 72/70/85
f 81/73/88 85/74/60 87/72/93 86/72/39
f 85/74/60 82/73/87 84/72/62 87/72/93
f 64/66/40 79/63/92 86/72/39 72/70/85
f 74/68/38 78/69/91 85/74/60 81/73/88
f 75/68/59 77/63/90 84/72/62 82/73/87
f 73/66/61 76/67/89 83/71/56 80/70/86
f 100/75/29 92/23/29 96/27/43 102/28/43
f 3/1/1 89/13/8 94/15/32 14/14/36
f 13/14/16 14/14/36 94/15/32 95/15/17
f 98/76/26 88/20/26 92/23/29 100/75/29
f 9/22/31 93/23/19 97/27/21 17/26/37
f 2/21/30 90/20/18 93/23/19 9/22/31
f 99/77/15 91/13/15 95/15/17 101/78/17
f 128/79/94 126/11/13 91/13/15 99/77/15
f 120/12/53 127/11/95 89/13/8 3/1/1
f 168/3/96 128/79/94 99/77/15 157/6/15
f 157/6/15 99/77/15 101/78/17 159/24/17
f 156/16/26 98/76/26 100/75/29 158/17/29
f 158/17/29 100/75/29 102/28/43 160/19/43
f 89/13/8 103/77/8 106/78/32 94/15/32
f 95/15/17 94/15/32 106/78/32 101/78/17
f 93/23/19 105/75/19 107/28/21 97/27/21
f 90/20/18 104/76/18 105/75/19 93/23/19
f 127/11/95 129/79/97 103/77/8 89/13/8
f 88/20/26 98/76/26 119/80/98 117/81/99
f 162/16/18 104/76/18 118/80/100 166/82/101
f 4/21/27 88/20/26 117/81/99 109/38/53
f 104/76/18 90/20/18 116/81/102 118/80/100
f 144/83/14 108/38/14 114/39/51 145/84/51
f 4/21/27 109/38/53 115/39/52 30/37/54
f 28/37/55 30/37/54 115/39/52 114/39/51
f 147/85/103 110/34/49 112/35/50 149/86/104
f 6/8/10 111/34/105 113/35/106 22/9/11
f 24/9/25 22/9/11 113/35/106 112/35/50
f 90/20/18 2/21/30 108/38/14 116/81/102
f 156/16/26 8/8/22 110/34/49 167/82/107
f 7/5/7 121/4/6 123/32/44 23/33/47
f 1/1/2 130/12/14 131/36/51 27/2/3
f 141/87/108 143/88/109 129/79/97 127/11/95
f 171/89/110 142/88/111 128/79/94 168/3/96
f 134/90/53 141/87/108 127/11/95 120/12/53
f 142/88/111 140/87/112 126/11/13 128/79/94
f 134/90/53 120/12/53 125/36/52 139/91/52
f 133/91/51 139/91/52 125/36/52 131/36/51
f 136/92/113 122/4/48 124/32/45 138/93/114
f 137/93/115 138/93/114 124/32/45 123/32/44
f 140/87/112 132/90/14 130/12/14 126/11/13
f 170/89/116 135/92/117 121/4/6 169/3/5
f 173/94/118 147/85/103 135/92/117 170/89/116
f 152/95/119 144/83/14 132/90/14 140/87/112
f 149/86/104 150/86/120 138/93/114 137/93/115
f 148/85/121 136/92/113 138/93/114 150/86/120
f 145/84/51 151/84/52 139/91/52 133/91/51
f 146/83/53 134/90/53 139/91/52 151/84/52
f 154/96/122 152/95/119 140/87/112 142/88/111
f 146/83/53 153/95/123 141/87/108 134/90/53
f 142/88/111 143/88/109 155/96/124 154/96/122
f 153/95/123 155/96/124 143/88/109 141/87/108
f 121/4/6 135/92/117 137/93/115 123/32/44
f 130/12/14 132/90/14 133/91/51 131/36/51
f 117/81/99 119/80/98 155/96/124 153/95/123
f 166/82/101 118/80/100 154/96/122 172/94/125
f 109/38/53 117/81/99 153/95/123 146/83/53
f 118/80/100 116/81/102 152/95/119 154/96/122
f 109/38/53 146/83/53 151/84/52 115/39/52
f 114/39/51 115/39/52 151/84/52 145/84/51
f 111/34/105 148/85/121 150/86/120 113/35/106
f 112/35/50 113/35/106 150/86/120 149/86/104
f 116/81/102 108/38/14 144/83/14 152/95/119
f 167/82/107 110/34/49 147/85/103 173/94/118
f 135/92/117 147/85/103 149/86/104 137/93/115
f 132/90/14 144/83/14 145/84/51 133/91/51
f 119/80/98 167/82/107 173/94/118 155/96/124
f 111/34/105 166/82/101 172/94/125 148/85/121
f 148/85/121 172/94/125 171/89/110 136/92/113
f 170/89/116 143/88/109 142/88/111 171/89/110
f 143/88/109 170/89/116 169/3/5 129/79/97
f 136/92/113 171/89/110 168/3/96 122/4/48
f 98/76/26 156/16/26 167/82/107 119/80/98
f 6/8/10 162/16/18 166/82/101 111/34/105
f 12/7/23 158/17/29 160/19/43 20/18/41
f 8/8/22 156/16/26 158/17/29 12/7/23
f 5/5/35 157/6/15 159/24/17 15/25/34
f 122/4/48 168/3/96 157/6/15 5/5/35
f 103/77/8 161/6/8 164/24/32 106/78/32
f 101/78/17 106/78/32 164/24/32 159/24/17
f 105/75/19 163/17/19 165/19/21 107/28/21
f 104/76/18 162/16/18 163/17/19 105/75/19
f 129/79/97 169/3/5 161/6/8 103/77/8
f 173/94/118 172/94/125 154/96/122 155/96/124
f 171/89/110 172/94/125 173/94/118 170/89/116
